<svg width="640" height="640" viewBox="0 0 640 640" fill="none" xmlns="http://www.w3.org/2000/svg">
<path d="M0 560H80V640H5C2.23858 640 0 637.761 0 635V560Z" fill="#94568B"/>
<rect y="400" width="80" height="80" fill="#94568B"/>
<rect y="240" width="80" height="80" fill="#94568B"/>
<rect y="80" width="80" height="80" fill="#94568B"/>
<rect x="80" y="560" width="80" height="80" fill="#ECD0E9"/>
<rect x="80" y="400" width="80" height="80" fill="#ECD0E9"/>
<rect x="80" y="240" width="80" height="80" fill="#ECD0E9"/>
<rect x="80" y="80" width="80" height="80" fill="#ECD0E9"/>
<rect x="160" y="560" width="80" height="80" fill="#94568B"/>
<rect x="160" y="400" width="80" height="80" fill="#94568B"/>
<rect x="160" y="240" width="80" height="80" fill="#94568B"/>
<rect x="160" y="80" width="80" height="80" fill="#94568B"/>
<rect x="240" y="560" width="80" height="80" fill="#ECD0E9"/>
<rect x="240" y="400" width="80" height="80" fill="#ECD0E9"/>
<rect x="240" y="240" width="80" height="80" fill="#ECD0E9"/>
<rect x="240" y="80" width="80" height="80" fill="#ECD0E9"/>
<rect x="320" y="560" width="80" height="80" fill="#94568B"/>
<rect x="320" y="400" width="80" height="80" fill="#94568B"/>
<rect x="320" y="240" width="80" height="80" fill="#94568B"/>
<rect x="320" y="80" width="80" height="80" fill="#94568B"/>
<rect x="400" y="560" width="80" height="80" fill="#ECD0E9"/>
<rect x="400" y="400" width="80" height="80" fill="#ECD0E9"/>
<rect x="400" y="240" width="80" height="80" fill="#ECD0E9"/>
<rect x="400" y="80" width="80" height="80" fill="#ECD0E9"/>
<rect x="480" y="560" width="80" height="80" fill="#94568B"/>
<rect x="480" y="400" width="80" height="80" fill="#94568B"/>
<rect x="480" y="240" width="80" height="80" fill="#94568B"/>
<rect x="480" y="80" width="80" height="80" fill="#94568B"/>
<path d="M560 560H640V635C640 637.761 637.761 640 635 640H560V560Z" fill="#ECD0E9"/>
<rect x="560" y="400" width="80" height="80" fill="#ECD0E9"/>
<rect x="560" y="240" width="80" height="80" fill="#ECD0E9"/>
<rect x="560" y="80" width="80" height="80" fill="#ECD0E9"/>
<rect y="480" width="80" height="80" fill="#ECD0E9"/>
<rect y="320" width="80" height="80" fill="#ECD0E9"/>
<rect y="160" width="80" height="80" fill="#ECD0E9"/>
<path d="M0 5C0 2.23858 2.23858 0 5 0H80V80H0V5Z" fill="#ECD0E9"/>
<rect x="80" y="480" width="80" height="80" fill="#94568B"/>
<rect x="80" y="320" width="80" height="80" fill="#94568B"/>
<rect x="80" y="160" width="80" height="80" fill="#94568B"/>
<rect x="80" width="80" height="80" fill="#94568B"/>
<rect x="160" y="480" width="80" height="80" fill="#ECD0E9"/>
<rect x="160" y="320" width="80" height="80" fill="#ECD0E9"/>
<rect x="160" y="160" width="80" height="80" fill="#ECD0E9"/>
<rect x="160" width="80" height="80" fill="#ECD0E9"/>
<rect x="240" y="480" width="80" height="80" fill="#94568B"/>
<rect x="240" y="320" width="80" height="80" fill="#94568B"/>
<rect x="240" y="160" width="80" height="80" fill="#94568B"/>
<rect x="240" width="80" height="80" fill="#94568B"/>
<rect x="320" y="480" width="80" height="80" fill="#ECD0E9"/>
<rect x="320" y="320" width="80" height="80" fill="#ECD0E9"/>
<rect x="320" y="160" width="80" height="80" fill="#ECD0E9"/>
<rect x="320" width="80" height="80" fill="#ECD0E9"/>
<rect x="400" y="480" width="80" height="80" fill="#94568B"/>
<rect x="400" y="320" width="80" height="80" fill="#94568B"/>
<rect x="400" y="160" width="80" height="80" fill="#94568B"/>
<rect x="400" width="80" height="80" fill="#94568B"/>
<rect x="480" y="480" width="80" height="80" fill="#ECD0E9"/>
<rect x="480" y="320" width="80" height="80" fill="#ECD0E9"/>
<rect x="480" y="160" width="80" height="80" fill="#ECD0E9"/>
<rect x="480" width="80" height="80" fill="#ECD0E9"/>
<rect x="560" y="480" width="80" height="80" fill="#94568B"/>
<rect x="560" y="320" width="80" height="80" fill="#94568B"/>
<rect x="560" y="160" width="80" height="80" fill="#94568B"/>
<path d="M560 0H635C637.761 0 640 2.23858 640 5V80H560V0Z" fill="#94568B"/>
<path d="M40 490C30.5333 490 22.8276 497.609 22.8276 507.034C22.8276 513.495 26.4528 519.104 31.7764 521.99C30.9133 525.537 30.0471 528.163 28.8994 530.41C27.7031 532.752 26.1593 534.762 23.8561 536.98H22.5517C18.9507 536.98 16 539.877 16 543.49C16 547.103 18.9507 550 22.5517 550H57.4483C61.0493 550 64 547.103 64 543.49C64 539.877 61.0493 536.98 57.4483 536.98H56.1507C53.791 534.737 52.2131 532.722 50.9958 530.386C49.8344 528.158 48.9605 525.562 48.0966 522.058C53.4896 519.193 57.1724 513.547 57.1724 507.034C57.1724 497.609 49.4667 490 40 490Z" fill="white" stroke="black" stroke-width="4"/>
<path d="M120 490C110.533 490 102.828 497.609 102.828 507.034C102.828 513.495 106.453 519.104 111.776 521.99C110.913 525.537 110.047 528.163 108.899 530.41C107.703 532.752 106.159 534.762 103.856 536.98H102.552C98.9507 536.98 96 539.877 96 543.49C96 547.103 98.9507 550 102.552 550H137.448C141.049 550 144 547.103 144 543.49C144 539.877 141.049 536.98 137.448 536.98H136.151C133.791 534.737 132.213 532.722 130.996 530.386C129.834 528.158 128.96 525.562 128.097 522.058C133.49 519.193 137.172 513.547 137.172 507.034C137.172 497.609 129.467 490 120 490Z" fill="white" stroke="black" stroke-width="4"/>
<path d="M200 490C190.533 490 182.828 497.609 182.828 507.034C182.828 513.495 186.453 519.104 191.776 521.99C190.913 525.537 190.047 528.163 188.899 530.41C187.703 532.752 186.159 534.762 183.856 536.98H182.552C178.951 536.98 176 539.877 176 543.49C176 547.103 178.951 550 182.552 550H217.448C221.049 550 224 547.103 224 543.49C224 539.877 221.049 536.98 217.448 536.98H216.151C213.791 534.737 212.213 532.722 210.996 530.386C209.834 528.158 208.96 525.562 208.097 522.058C213.49 519.193 217.172 513.547 217.172 507.034C217.172 497.609 209.467 490 200 490Z" fill="white" stroke="black" stroke-width="4"/>
<path d="M280 490C270.533 490 262.828 497.609 262.828 507.034C262.828 513.495 266.453 519.104 271.776 521.99C270.913 525.537 270.047 528.163 268.899 530.41C267.703 532.752 266.159 534.762 263.856 536.98H262.552C258.951 536.98 256 539.877 256 543.49C256 547.103 258.951 550 262.552 550H297.448C301.049 550 304 547.103 304 543.49C304 539.877 301.049 536.98 297.448 536.98H296.151C293.791 534.737 292.213 532.722 290.996 530.386C289.834 528.158 288.96 525.562 288.097 522.058C293.49 519.193 297.172 513.547 297.172 507.034C297.172 497.609 289.467 490 280 490Z" fill="white" stroke="black" stroke-width="4"/>
<path d="M360 490C350.533 490 342.828 497.609 342.828 507.034C342.828 513.495 346.453 519.104 351.776 521.99C350.913 525.537 350.047 528.163 348.899 530.41C347.703 532.752 346.159 534.762 343.856 536.98H342.552C338.951 536.98 336 539.877 336 543.49C336 547.103 338.951 550 342.552 550H377.448C381.049 550 384 547.103 384 543.49C384 539.877 381.049 536.98 377.448 536.98H376.151C373.791 534.737 372.213 532.722 370.996 530.386C369.834 528.158 368.96 525.562 368.097 522.058C373.49 519.193 377.172 513.547 377.172 507.034C377.172 497.609 369.467 490 360 490Z" fill="white" stroke="black" stroke-width="4"/>
<path d="M441 490C431.533 490 423.828 497.609 423.828 507.034C423.828 513.495 427.453 519.104 432.776 521.99C431.913 525.537 431.047 528.163 429.899 530.41C428.703 532.752 427.159 534.762 424.856 536.98H423.552C419.951 536.98 417 539.877 417 543.49C417 547.103 419.951 550 423.552 550H458.448C462.049 550 465 547.103 465 543.49C465 539.877 462.049 536.98 458.448 536.98H457.151C454.791 534.737 453.213 532.722 451.996 530.386C450.834 528.158 449.96 525.562 449.097 522.058C454.49 519.193 458.172 513.547 458.172 507.034C458.172 497.609 450.467 490 441 490Z" fill="white" stroke="black" stroke-width="4"/>
<path d="M520 490C510.533 490 502.828 497.609 502.828 507.034C502.828 513.495 506.453 519.104 511.776 521.99C510.913 525.537 510.047 528.163 508.899 530.41C507.703 532.752 506.159 534.762 503.856 536.98H502.552C498.951 536.98 496 539.877 496 543.49C496 547.103 498.951 550 502.552 550H537.448C541.049 550 544 547.103 544 543.49C544 539.877 541.049 536.98 537.448 536.98H536.151C533.791 534.737 532.213 532.722 530.996 530.386C529.834 528.158 528.96 525.562 528.097 522.058C533.49 519.193 537.172 513.547 537.172 507.034C537.172 497.609 529.467 490 520 490Z" fill="white" stroke="black" stroke-width="4"/>
<path d="M600 490C590.533 490 582.828 497.609 582.828 507.034C582.828 513.495 586.453 519.104 591.776 521.99C590.913 525.537 590.047 528.163 588.899 530.41C587.703 532.752 586.159 534.762 583.856 536.98H582.552C578.951 536.98 576 539.877 576 543.49C576 547.103 578.951 550 582.552 550H617.448C621.049 550 624 547.103 624 543.49C624 539.877 621.049 536.98 617.448 536.98H616.151C613.791 534.737 612.213 532.722 610.996 530.386C609.834 528.158 608.96 525.562 608.097 522.058C613.49 519.193 617.172 513.547 617.172 507.034C617.172 497.609 609.467 490 600 490Z" fill="white" stroke="black" stroke-width="4"/>
<path d="M40 90C30.5333 90 22.8276 97.6089 22.8276 107.034C22.8276 113.495 26.4528 119.104 31.7764 121.99C30.9133 125.537 30.0471 128.163 28.8994 130.41C27.7031 132.752 26.1593 134.762 23.8561 136.98H22.5517C18.9507 136.98 16 139.877 16 143.49C16 147.103 18.9507 150 22.5517 150H57.4483C61.0493 150 64 147.103 64 143.49C64 139.877 61.0493 136.98 57.4483 136.98H56.1507C53.791 134.737 52.2131 132.722 50.9958 130.386C49.8344 128.158 48.9605 125.562 48.0966 122.058C53.4896 119.193 57.1724 113.547 57.1724 107.034C57.1724 97.6089 49.4667 90 40 90Z" fill="black" stroke="white" stroke-width="4"/>
<path d="M120 90C110.533 90 102.828 97.6089 102.828 107.034C102.828 113.495 106.453 119.104 111.776 121.99C110.913 125.537 110.047 128.163 108.899 130.41C107.703 132.752 106.159 134.762 103.856 136.98H102.552C98.9507 136.98 96 139.877 96 143.49C96 147.103 98.9507 150 102.552 150H137.448C141.049 150 144 147.103 144 143.49C144 139.877 141.049 136.98 137.448 136.98H136.151C133.791 134.737 132.213 132.722 130.996 130.386C129.834 128.158 128.96 125.562 128.097 122.058C133.49 119.193 137.172 113.547 137.172 107.034C137.172 97.6089 129.467 90 120 90Z" fill="black" stroke="white" stroke-width="4"/>
<path d="M200 90C190.533 90 182.828 97.6089 182.828 107.034C182.828 113.495 186.453 119.104 191.776 121.99C190.913 125.537 190.047 128.163 188.899 130.41C187.703 132.752 186.159 134.762 183.856 136.98H182.552C178.951 136.98 176 139.877 176 143.49C176 147.103 178.951 150 182.552 150H217.448C221.049 150 224 147.103 224 143.49C224 139.877 221.049 136.98 217.448 136.98H216.151C213.791 134.737 212.213 132.722 210.996 130.386C209.834 128.158 208.96 125.562 208.097 122.058C213.49 119.193 217.172 113.547 217.172 107.034C217.172 97.6089 209.467 90 200 90Z" fill="black" stroke="white" stroke-width="4"/>
<path d="M280 90C270.533 90 262.828 97.6089 262.828 107.034C262.828 113.495 266.453 119.104 271.776 121.99C270.913 125.537 270.047 128.163 268.899 130.41C267.703 132.752 266.159 134.762 263.856 136.98H262.552C258.951 136.98 256 139.877 256 143.49C256 147.103 258.951 150 262.552 150H297.448C301.049 150 304 147.103 304 143.49C304 139.877 301.049 136.98 297.448 136.98H296.151C293.791 134.737 292.213 132.722 290.996 130.386C289.834 128.158 288.96 125.562 288.097 122.058C293.49 119.193 297.172 113.547 297.172 107.034C297.172 97.6089 289.467 90 280 90Z" fill="black" stroke="white" stroke-width="4"/>
<path d="M360 90C350.533 90 342.828 97.6089 342.828 107.034C342.828 113.495 346.453 119.104 351.776 121.99C350.913 125.537 350.047 128.163 348.899 130.41C347.703 132.752 346.159 134.762 343.856 136.98H342.552C338.951 136.98 336 139.877 336 143.49C336 147.103 338.951 150 342.552 150H377.448C381.049 150 384 147.103 384 143.49C384 139.877 381.049 136.98 377.448 136.98H376.151C373.791 134.737 372.213 132.722 370.996 130.386C369.834 128.158 368.96 125.562 368.097 122.058C373.49 119.193 377.172 113.547 377.172 107.034C377.172 97.6089 369.467 90 360 90Z" fill="black" stroke="white" stroke-width="4"/>
<path d="M440 90C430.533 90 422.828 97.6089 422.828 107.034C422.828 113.495 426.453 119.104 431.776 121.99C430.913 125.537 430.047 128.163 428.899 130.41C427.703 132.752 426.159 134.762 423.856 136.98H422.552C418.951 136.98 416 139.877 416 143.49C416 147.103 418.951 150 422.552 150H457.448C461.049 150 464 147.103 464 143.49C464 139.877 461.049 136.98 457.448 136.98H456.151C453.791 134.737 452.213 132.722 450.996 130.386C449.834 128.158 448.96 125.562 448.097 122.058C453.49 119.193 457.172 113.547 457.172 107.034C457.172 97.6089 449.467 90 440 90Z" fill="black" stroke="white" stroke-width="4"/>
<path d="M520 90C510.533 90 502.828 97.6089 502.828 107.034C502.828 113.495 506.453 119.104 511.776 121.99C510.913 125.537 510.047 128.163 508.899 130.41C507.703 132.752 506.159 134.762 503.856 136.98H502.552C498.951 136.98 496 139.877 496 143.49C496 147.103 498.951 150 502.552 150H537.448C541.049 150 544 147.103 544 143.49C544 139.877 541.049 136.98 537.448 136.98H536.151C533.791 134.737 532.213 132.722 530.996 130.386C529.834 128.158 528.96 125.562 528.097 122.058C533.49 119.193 537.172 113.547 537.172 107.034C537.172 97.6089 529.467 90 520 90Z" fill="black" stroke="white" stroke-width="4"/>
<path d="M600 90C590.533 90 582.828 97.6089 582.828 107.034C582.828 113.495 586.453 119.104 591.776 121.99C590.913 125.537 590.047 128.163 588.899 130.41C587.703 132.752 586.159 134.762 583.856 136.98H582.552C578.951 136.98 576 139.877 576 143.49C576 147.103 578.951 150 582.552 150H617.448C621.049 150 624 147.103 624 143.49C624 139.877 621.049 136.98 617.448 136.98H616.151C613.791 134.737 612.213 132.722 610.996 130.386C609.834 128.158 608.96 125.562 608.097 122.058C613.49 119.193 617.172 113.547 617.172 107.034C617.172 97.6089 609.467 90 600 90Z" fill="black" stroke="white" stroke-width="4"/>
<path d="M24.0992 601.616V616.795H21.8264C18.1714 616.795 15.1653 619.727 15.1653 623.397C15.1653 627.068 18.1714 630 21.8264 630H57.562C61.217 630 64.2231 627.068 64.2231 623.397C64.2231 619.727 61.217 616.795 57.562 616.795H54.9008V601.616H59.1157C62.3417 601.616 65 599.027 65 595.781V583.123V575.068C65 572.246 62.6895 570 59.8926 570H53.6777C50.8808 570 48.5702 572.246 48.5702 575.068V581.123H47.9091V575.068C47.9091 572.246 45.5986 570 42.8017 570H36.5868C33.7899 570 31.4793 572.246 31.4793 575.068V581.123H30.4298V575.068C30.4298 572.246 28.1192 570 25.3223 570H19.1074C16.3105 570 14 572.246 14 575.068V583.123V595.781C14 599.027 16.6583 601.616 19.8843 601.616H24.0992Z" fill="white" stroke="black" stroke-width="4"/>
<path d="M584.099 601.616V616.795H581.826C578.171 616.795 575.165 619.727 575.165 623.397C575.165 627.068 578.171 630 581.826 630H617.562C621.217 630 624.223 627.068 624.223 623.397C624.223 619.727 621.217 616.795 617.562 616.795H614.901V601.616H619.116C622.342 601.616 625 599.027 625 595.781V583.123V575.068C625 572.246 622.689 570 619.893 570H613.678C610.881 570 608.57 572.246 608.57 575.068V581.123H607.909V575.068C607.909 572.246 605.599 570 602.802 570H596.587C593.79 570 591.479 572.246 591.479 575.068V581.123H590.43V575.068C590.43 572.246 588.119 570 585.322 570H579.107C576.311 570 574 572.246 574 575.068V583.123V595.781C574 599.027 576.658 601.616 579.884 601.616H584.099Z" fill="white" stroke="black" stroke-width="4"/>
<path d="M107.922 570.623C106.641 570.623 104.853 571.038 104.306 572.823C103.878 574.218 104.578 575.476 105.161 576.203L106.481 578.301C106.483 578.314 106.484 578.322 106.485 578.325L106.485 578.326C106.486 578.333 106.488 578.349 106.48 578.394C106.457 578.532 106.38 578.769 106.121 579.344C103.872 583.676 101.976 586.06 99.1664 589.593C98.6305 590.266 98.0613 590.982 97.4502 591.761L97.338 591.904L97.2534 592.065C95.1886 595.992 95.8022 600.051 98.1697 602.707C100.537 605.363 104.456 606.373 108.356 604.639L108.452 604.596L108.543 604.544L115.305 600.64C114.44 601.794 113.369 603.093 112.176 604.51C111.879 604.862 111.576 605.221 111.268 605.585C109.716 607.42 108.053 609.387 106.572 611.331C105.128 613.225 103.779 615.195 102.838 617.11H102.621C99.0484 617.11 96.077 619.954 96.077 623.555C96.077 627.156 99.0484 630 102.621 630H137.456C141.029 630 144 627.156 144 623.555C144 620.778 142.232 618.45 139.784 617.531C141.579 607.618 142.296 599.435 142.296 590.958C142.296 588.012 140.866 583.843 138.012 580.025C135.115 576.149 130.644 572.484 124.373 570.699L124.372 570.699C121.565 569.9 118.438 569.924 115.606 570.101C114.463 570.173 113.396 570.266 112.391 570.353C110.757 570.495 109.287 570.623 107.922 570.623ZM107.922 570.623V572.623M107.922 570.623V572.623M107.922 572.623C109.36 572.623 110.989 572.482 112.699 572.335C116.39 572.016 120.461 571.665 123.825 572.623C135.425 575.924 140.296 586.143 140.296 590.958C140.296 599.29 139.594 607.339 137.826 617.12L106.786 575.03C105.839 573.919 105.839 572.623 107.922 572.623Z" fill="white" stroke="black" stroke-width="4"/>
<path d="M507.922 570.623C506.641 570.623 504.853 571.038 504.306 572.823C503.878 574.218 504.578 575.476 505.161 576.203L506.481 578.301C506.483 578.314 506.484 578.322 506.485 578.325L506.485 578.326C506.486 578.333 506.488 578.349 506.48 578.394C506.457 578.532 506.38 578.769 506.121 579.344C503.872 583.676 501.976 586.06 499.166 589.593C498.63 590.266 498.061 590.982 497.45 591.761L497.338 591.904L497.253 592.065C495.189 595.992 495.802 600.051 498.17 602.707C500.537 605.363 504.456 606.373 508.356 604.639L508.452 604.596L508.543 604.544L515.305 600.64C514.44 601.794 513.369 603.093 512.176 604.51C511.879 604.862 511.576 605.221 511.268 605.585C509.716 607.42 508.053 609.387 506.572 611.331C505.128 613.225 503.779 615.195 502.838 617.11H502.621C499.048 617.11 496.077 619.954 496.077 623.555C496.077 627.156 499.048 630 502.621 630H537.456C541.029 630 544 627.156 544 623.555C544 620.778 542.232 618.45 539.784 617.531C541.579 607.618 542.296 599.435 542.296 590.958C542.296 588.012 540.866 583.843 538.012 580.025C535.115 576.149 530.644 572.484 524.373 570.699L524.372 570.699C521.565 569.9 518.438 569.924 515.606 570.101C514.463 570.173 513.396 570.266 512.391 570.353C510.757 570.495 509.287 570.623 507.922 570.623ZM507.922 570.623V572.623M507.922 570.623V572.623M507.922 572.623C509.36 572.623 510.989 572.482 512.699 572.335C516.39 572.016 520.461 571.665 523.825 572.623C535.425 575.924 540.296 586.143 540.296 590.958C540.296 599.29 539.594 607.339 537.826 617.12L506.786 575.03C505.839 573.919 505.839 572.623 507.922 572.623Z" fill="white" stroke="black" stroke-width="4"/>
<path d="M190.086 579.503C190.086 582.395 191.162 584.377 192.354 585.64C184.365 592.52 180.452 599.29 179.647 605.373C179.034 609.995 180.242 614.054 182.587 617.216H182.448C178.911 617.216 176 620.054 176 623.608C176 627.162 178.911 630 182.448 630H216.552C220.089 630 223 627.162 223 623.608C223 620.054 220.089 617.216 216.552 617.216H215.689C217.673 614.378 218.943 611.156 219.196 607.742C219.562 602.816 217.792 597.736 213.456 593.129L211.928 591.506L211.823 591.629L211.064 590.691C210.846 590.42 210.634 590.156 210.427 589.898C209.173 588.334 208.091 586.984 206.644 585.642C207.836 584.379 208.914 582.397 208.914 579.503C208.914 574.277 204.722 570 199.5 570C194.278 570 190.086 574.277 190.086 579.503ZM205.137 599.45L200.081 605.364C200.056 605.37 200.037 605.369 200.021 605.367C199.983 605.361 199.911 605.333 199.838 605.257C199.783 605.199 199.76 605.146 199.751 605.118L205.137 599.45Z" fill="white" stroke="black" stroke-width="4"/>
<path d="M430.086 579.503C430.086 582.395 431.162 584.377 432.354 585.64C424.365 592.52 420.452 599.29 419.647 605.373C419.034 609.995 420.242 614.054 422.587 617.216H422.448C418.911 617.216 416 620.054 416 623.608C416 627.162 418.911 630 422.448 630H456.552C460.089 630 463 627.162 463 623.608C463 620.054 460.089 617.216 456.552 617.216H455.689C457.673 614.378 458.943 611.156 459.196 607.742C459.562 602.816 457.792 597.736 453.456 593.129L451.928 591.506L451.823 591.629L451.064 590.691C450.846 590.42 450.634 590.156 450.427 589.898C449.173 588.334 448.091 586.984 446.644 585.642C447.836 584.379 448.914 582.397 448.914 579.503C448.914 574.277 444.722 570 439.5 570C434.278 570 430.086 574.277 430.086 579.503ZM445.137 599.45L440.081 605.364C440.056 605.37 440.037 605.369 440.021 605.367C439.983 605.361 439.911 605.333 439.838 605.257C439.783 605.199 439.76 605.146 439.751 605.118L445.137 599.45Z" fill="white" stroke="black" stroke-width="4"/>
<path d="M249 581.643C249 585.18 251.714 588.025 255.13 588.417C255.171 588.502 255.221 588.623 255.272 588.79C255.454 589.378 255.57 590.245 255.625 591.447C255.679 592.599 255.673 593.919 255.667 595.415L255.667 595.543C255.66 597.072 255.656 598.754 255.723 600.495C255.93 605.86 256.83 612.224 260.909 617.101C257.404 617.185 254.51 619.996 254.51 623.55C254.51 627.158 257.493 630 261.07 630H296.03C299.607 630 302.59 627.158 302.59 623.55C302.59 620.584 300.575 618.136 297.872 617.358C302.138 612.449 303.066 605.955 303.277 600.494C303.344 598.754 303.34 597.072 303.333 595.543L303.333 595.415C303.327 593.919 303.321 592.599 303.375 591.447C303.43 590.245 303.546 589.378 303.728 588.79C303.779 588.623 303.829 588.502 303.87 588.417C307.286 588.025 310 585.18 310 581.643C310 577.83 306.847 574.821 303.06 574.821C299.273 574.821 296.12 577.83 296.12 581.643C296.12 582.194 296.187 582.731 296.313 583.246C294.91 584.312 293.712 585.392 292.528 586.712C292.305 585.223 291.991 583.774 291.447 582.138C293.018 580.895 294.04 578.986 294.04 576.821C294.04 573.008 290.887 570 287.1 570C283.313 570 280.16 573.008 280.16 576.821C280.16 578.016 280.474 579.143 281.025 580.122C281.261 580.54 281.539 580.93 281.854 581.287C280.949 582.857 280.174 584.478 279.31 586.512C278.446 584.478 277.671 582.857 276.766 581.287C277.081 580.93 277.359 580.54 277.595 580.122C278.146 579.143 278.46 578.016 278.46 576.821C278.46 573.008 275.307 570 271.52 570C267.733 570 264.58 573.008 264.58 576.821C264.58 578.986 265.602 580.895 267.173 582.138C266.645 583.725 266.334 585.134 266.112 586.576C265.071 585.342 264.007 584.296 262.684 583.258C262.812 582.74 262.88 582.199 262.88 581.643C262.88 577.83 259.727 574.821 255.94 574.821C252.153 574.821 249 577.83 249 581.643ZM255.012 588.234C255.007 588.23 255.005 588.228 255.005 588.228C255.005 588.228 255.008 588.229 255.012 588.234ZM303.995 588.228C303.995 588.228 303.993 588.23 303.988 588.234C303.992 588.23 303.995 588.228 303.995 588.228Z" fill="white" stroke="black" stroke-width="4"/>
<path d="M340.099 630H375.902C379.497 630 382.572 627.196 382.572 623.542C382.572 621.288 381.4 619.356 379.658 618.208C381.852 615.775 383.65 612.918 384.916 609.944C386.621 605.936 387.421 601.571 386.78 597.628C386.129 593.616 383.974 590.051 379.898 587.972C376.234 586.103 371.249 585.553 364.852 586.606C364.667 586.292 364.43 585.991 364.124 585.717H365.417C367.203 585.717 368.1 584.261 368.453 583.441C368.862 582.491 369.037 581.36 369.051 580.331C369.066 579.307 368.924 578.156 368.513 577.181C368.129 576.269 367.2 574.89 365.417 574.89H362.679V572.831C362.679 571.779 362.019 571.129 361.605 570.836C361.188 570.54 360.726 570.377 360.373 570.28C359.64 570.077 358.777 570 358 570C357.223 570 356.36 570.077 355.627 570.28C355.273 570.377 354.812 570.54 354.395 570.836C353.981 571.129 353.321 571.779 353.321 572.831V574.89H350.583C348.799 574.89 347.871 576.269 347.487 577.181C347.076 578.156 346.934 579.307 346.948 580.331C346.963 581.36 347.138 582.491 347.546 583.441C347.9 584.261 348.797 585.717 350.583 585.717H351.876C351.57 585.991 351.333 586.292 351.147 586.606C344.75 585.553 339.766 586.103 336.101 587.972C332.026 590.051 329.871 593.616 329.22 597.628C328.579 601.571 329.379 605.936 331.084 609.944C332.35 612.918 334.148 615.775 336.342 618.208C334.6 619.356 333.429 621.288 333.429 623.542C333.429 627.196 336.504 630 340.099 630Z" fill="white" stroke="black" stroke-width="4"/>
<path d="M23.0992 41.6164V56.7945H20.8264C17.1714 56.7945 14.1653 59.727 14.1653 63.3973C14.1653 67.0676 17.1714 70 20.8264 70H56.562C60.217 70 63.2231 67.0676 63.2231 63.3973C63.2231 59.727 60.217 56.7945 56.562 56.7945H53.9008V41.6164H58.1157C61.3417 41.6164 64 39.0274 64 35.7808V23.1233V15.0685C64 12.2455 61.6895 10 58.8926 10H52.6777C49.8808 10 47.5702 12.2455 47.5702 15.0685V21.1233H46.9091V15.0685C46.9091 12.2455 44.5986 10 41.8017 10H35.5868C32.7899 10 30.4793 12.2455 30.4793 15.0685V21.1233H29.4298V15.0685C29.4298 12.2455 27.1192 10 24.3223 10H18.1074C15.3105 10 13 12.2455 13 15.0685V23.1233V35.7808C13 39.0274 15.6583 41.6164 18.8843 41.6164H23.0992Z" fill="black" stroke="white" stroke-width="4"/>
<path d="M583.099 41.6164V56.7945H580.826C577.171 56.7945 574.165 59.727 574.165 63.3973C574.165 67.0676 577.171 70 580.826 70H616.562C620.217 70 623.223 67.0676 623.223 63.3973C623.223 59.727 620.217 56.7945 616.562 56.7945H613.901V41.6164H618.116C621.342 41.6164 624 39.0274 624 35.7808V23.1233V15.0685C624 12.2455 621.689 10 618.893 10H612.678C609.881 10 607.57 12.2455 607.57 15.0685V21.1233H606.909V15.0685C606.909 12.2455 604.599 10 601.802 10H595.587C592.79 10 590.479 12.2455 590.479 15.0685V21.1233H589.43V15.0685C589.43 12.2455 587.119 10 584.322 10H578.107C575.311 10 573 12.2455 573 15.0685V23.1233V35.7808C573 39.0274 575.658 41.6164 578.884 41.6164H583.099Z" fill="black" stroke="white" stroke-width="4"/>
<path d="M106.922 10.6227C105.641 10.6227 103.853 11.0378 103.306 12.8234C102.878 14.2175 103.578 15.4762 104.161 16.2031L105.481 18.3014C105.483 18.3139 105.484 18.3217 105.485 18.3254L105.485 18.3257C105.486 18.3332 105.488 18.3493 105.48 18.3938C105.457 18.5321 105.38 18.7689 105.121 19.3435C102.872 23.6759 100.976 26.0598 98.1664 29.5925C97.6305 30.2664 97.0613 30.9821 96.4502 31.761L96.338 31.9041L96.2534 32.0649C94.1886 35.9925 94.8022 40.0514 97.1697 42.7072C99.5371 45.3627 103.456 46.3732 107.356 44.6391L107.452 44.5964L107.543 44.5437L114.305 40.6396C113.44 41.7945 112.369 43.0926 111.176 44.5096C110.879 44.862 110.576 45.2208 110.268 45.5848C108.716 47.4203 107.053 49.3872 105.572 51.3312C104.128 53.2247 102.779 55.1948 101.838 57.11H101.621C98.0484 57.11 95.077 59.9543 95.077 63.555C95.077 67.1557 98.0484 70 101.621 70H136.456C140.029 70 143 67.1557 143 63.555C143 60.7777 141.232 58.4503 138.784 57.5312C140.579 47.6181 141.296 39.4353 141.296 30.9583C141.296 28.0118 139.866 23.8434 137.012 20.0255C134.115 16.1494 129.644 12.4842 123.373 10.6991L123.372 10.6991C120.565 9.90008 117.438 9.92364 114.606 10.1012C113.463 10.1729 112.396 10.2656 111.391 10.353C109.757 10.4949 108.287 10.6227 106.922 10.6227ZM106.922 10.6227V12.6227M106.922 10.6227V12.6227M106.922 12.6227C108.36 12.6227 109.989 12.4822 111.699 12.3347C115.39 12.0164 119.461 11.6653 122.825 12.6227C134.425 15.9244 139.296 26.1429 139.296 30.9583C139.296 39.2901 138.594 47.3391 136.826 57.1202L105.786 15.0304C104.839 13.9191 104.839 12.6227 106.922 12.6227Z" fill="black" stroke="white" stroke-width="4"/>
<path d="M506.922 10.6227C505.641 10.6227 503.853 11.0378 503.306 12.8234C502.878 14.2175 503.578 15.4762 504.161 16.2031L505.481 18.3014C505.483 18.3139 505.484 18.3217 505.485 18.3254L505.485 18.3257C505.486 18.3332 505.488 18.3493 505.48 18.3938C505.457 18.5321 505.38 18.7689 505.121 19.3435C502.872 23.6759 500.976 26.0598 498.166 29.5925C497.63 30.2664 497.061 30.9821 496.45 31.761L496.338 31.9041L496.253 32.0649C494.189 35.9925 494.802 40.0514 497.17 42.7072C499.537 45.3627 503.456 46.3732 507.356 44.6391L507.452 44.5964L507.543 44.5437L514.305 40.6396C513.44 41.7945 512.369 43.0926 511.176 44.5096C510.879 44.862 510.576 45.2208 510.268 45.5848C508.716 47.4203 507.053 49.3872 505.572 51.3312C504.128 53.2247 502.779 55.1948 501.838 57.11H501.621C498.048 57.11 495.077 59.9543 495.077 63.555C495.077 67.1557 498.048 70 501.621 70H536.456C540.029 70 543 67.1557 543 63.555C543 60.7777 541.232 58.4503 538.784 57.5312C540.579 47.6181 541.296 39.4353 541.296 30.9583C541.296 28.0118 539.866 23.8434 537.012 20.0255C534.115 16.1494 529.644 12.4842 523.373 10.6991L523.372 10.6991C520.565 9.90008 517.438 9.92364 514.606 10.1012C513.463 10.1729 512.396 10.2656 511.391 10.353C509.757 10.4949 508.287 10.6227 506.922 10.6227ZM506.922 10.6227V12.6227M506.922 10.6227V12.6227M506.922 12.6227C508.36 12.6227 509.989 12.4822 511.699 12.3347C515.39 12.0164 519.461 11.6653 522.825 12.6227C534.425 15.9244 539.296 26.1429 539.296 30.9583C539.296 39.2901 538.594 47.3391 536.826 57.1202L505.786 15.0304C504.839 13.9191 504.839 12.6227 506.922 12.6227Z" fill="black" stroke="white" stroke-width="4"/>
<path d="M189.086 19.5033C189.086 22.3951 190.162 24.3772 191.354 25.64C183.365 32.52 179.452 39.29 178.647 45.3731C178.034 49.9955 179.242 54.0538 181.587 57.2157H181.448C177.911 57.2157 175 60.0537 175 63.6078C175 67.162 177.911 70 181.448 70H215.552C219.089 70 222 67.162 222 63.6078C222 60.0537 219.089 57.2157 215.552 57.2157H214.689C216.673 54.3775 217.943 51.1558 218.196 47.742C218.562 42.8165 216.792 37.7361 212.456 33.1293L210.928 31.5058L210.823 31.6295L210.064 30.6908C209.846 30.42 209.634 30.1561 209.427 29.898C208.173 28.3337 207.091 26.9843 205.644 25.642C206.836 24.3793 207.914 22.3967 207.914 19.5033C207.914 14.2774 203.722 10 198.5 10C193.278 10 189.086 14.2774 189.086 19.5033ZM204.137 39.45L199.081 45.3643C199.056 45.3698 199.037 45.3693 199.021 45.3668C198.983 45.3609 198.911 45.3334 198.838 45.2569C198.783 45.1988 198.76 45.1463 198.751 45.1175L204.137 39.45Z" fill="black" stroke="white" stroke-width="4"/>
<path d="M429.086 19.5033C429.086 22.3951 430.162 24.3772 431.354 25.64C423.365 32.52 419.452 39.29 418.647 45.3731C418.034 49.9955 419.242 54.0538 421.587 57.2157H421.448C417.911 57.2157 415 60.0537 415 63.6078C415 67.162 417.911 70 421.448 70H455.552C459.089 70 462 67.162 462 63.6078C462 60.0537 459.089 57.2157 455.552 57.2157H454.689C456.673 54.3775 457.943 51.1558 458.196 47.742C458.562 42.8165 456.792 37.7361 452.456 33.1293L450.928 31.5058L450.823 31.6295L450.064 30.6908C449.846 30.42 449.634 30.1561 449.427 29.898C448.173 28.3337 447.091 26.9843 445.644 25.642C446.836 24.3793 447.914 22.3967 447.914 19.5033C447.914 14.2774 443.722 10 438.5 10C433.278 10 429.086 14.2774 429.086 19.5033ZM444.137 39.45L439.081 45.3643C439.056 45.3698 439.037 45.3693 439.021 45.3668C438.983 45.3609 438.911 45.3334 438.838 45.2569C438.783 45.1988 438.76 45.1463 438.751 45.1175L444.137 39.45Z" fill="black" stroke="white" stroke-width="4"/>
<path d="M248 21.6426C248 25.1798 250.714 28.0247 254.13 28.4175C254.171 28.5025 254.221 28.6227 254.272 28.7904C254.454 29.378 254.57 30.2449 254.625 31.4473C254.679 32.5987 254.673 33.9187 254.667 35.4147L254.667 35.543C254.66 37.0716 254.656 38.7543 254.723 40.4945C254.93 45.8604 255.83 52.2237 259.909 57.1013C256.404 57.1849 253.51 59.9958 253.51 63.5497C253.51 67.1577 256.493 70 260.07 70H295.03C298.607 70 301.59 67.1577 301.59 63.5497C301.59 60.5844 299.575 58.1364 296.872 57.3583C301.138 52.4488 302.066 45.9551 302.277 40.4945C302.344 38.7543 302.34 37.0716 302.333 35.543L302.333 35.4147C302.327 33.9187 302.321 32.5987 302.375 31.4473C302.43 30.2449 302.546 29.378 302.728 28.7904C302.779 28.6227 302.829 28.5025 302.87 28.4175C306.286 28.0247 309 25.1799 309 21.6426C309 17.8298 305.847 14.8214 302.06 14.8214C298.273 14.8214 295.12 17.8298 295.12 21.6426C295.12 22.1941 295.187 22.7312 295.313 23.2458C293.91 24.3116 292.712 25.3917 291.528 26.7118C291.305 25.2227 290.991 23.7744 290.447 22.1378C292.018 20.8952 293.04 18.9858 293.04 16.8212C293.04 13.0083 289.887 10 286.1 10C282.313 10 279.16 13.0083 279.16 16.8212C279.16 18.0163 279.474 19.1434 280.025 20.1216C280.261 20.5397 280.539 20.9299 280.854 21.2869C279.949 22.8568 279.174 24.4784 278.31 26.5124C277.446 24.4784 276.671 22.8568 275.766 21.2869C276.081 20.9299 276.359 20.5397 276.595 20.1216C277.146 19.1434 277.46 18.0163 277.46 16.8212C277.46 13.0083 274.307 10 270.52 10C266.733 10 263.58 13.0083 263.58 16.8212C263.58 18.9858 264.602 20.8952 266.173 22.1378C265.645 23.7247 265.334 25.1345 265.112 26.5762C264.071 25.3418 263.007 24.2963 261.684 23.2585C261.812 22.74 261.88 22.1987 261.88 21.6426C261.88 17.8298 258.727 14.8214 254.94 14.8214C251.153 14.8214 248 17.8298 248 21.6426ZM254.012 28.2339C254.007 28.2304 254.005 28.2282 254.005 28.228C254.005 28.2277 254.008 28.2295 254.012 28.2339ZM302.995 28.228C302.995 28.2282 302.993 28.2305 302.988 28.234C302.992 28.2295 302.995 28.2277 302.995 28.228Z" fill="black" stroke="white" stroke-width="4"/>
<path d="M339.099 70H374.902C378.497 70 381.572 67.1955 381.572 63.5424C381.572 61.2878 380.4 59.3565 378.658 58.2081C380.852 55.7753 382.65 52.9176 383.916 49.9441C385.621 45.9365 386.421 41.571 385.78 37.6277C385.129 33.6163 382.974 30.0512 378.898 27.972C375.234 26.1027 370.249 25.553 363.852 26.6064C363.667 26.2924 363.43 25.9907 363.124 25.717H364.417C366.203 25.717 367.1 24.2614 367.453 23.4408C367.862 22.4909 368.037 21.3601 368.051 20.3313C368.066 19.3065 367.924 18.1563 367.513 17.1807C367.129 16.2694 366.2 14.8901 364.417 14.8901H361.679V12.8308C361.679 11.7786 361.019 11.1291 360.605 10.8357C360.188 10.5399 359.726 10.3771 359.373 10.2796C358.64 10.0774 357.777 10 357 10C356.223 10 355.36 10.0774 354.627 10.2796C354.273 10.377 353.812 10.5399 353.395 10.8357C352.981 11.1291 352.321 11.7787 352.321 12.8308V14.8901H349.583C347.799 14.8901 346.871 16.2694 346.487 17.1807C346.076 18.1563 345.934 19.3065 345.948 20.3313C345.963 21.3601 346.138 22.4909 346.546 23.4408C346.9 24.2614 347.797 25.717 349.583 25.717H350.876C350.57 25.9907 350.333 26.2924 350.147 26.6064C343.75 25.553 338.766 26.1027 335.101 27.972C331.026 30.0512 328.871 33.6163 328.22 37.6277C327.579 41.571 328.379 45.9365 330.084 49.9441C331.35 52.9176 333.148 55.7753 335.342 58.2081C333.6 59.3565 332.429 61.2878 332.429 63.5424C332.429 67.1955 335.504 70 339.099 70Z" fill="black" stroke="white" stroke-width="4"/>
</svg>
